<svg width="183" height="120" viewBox="0 0 183 120" fill="none" xmlns="http://www.w3.org/2000/svg">
<path d="M105.628 3.28989C83.8329 -2.86886 76.7758 26.3095 57.0624 10.157C37.349 -5.99549 9.00005 58.7318 27.9198 55.7306C27.9198 55.7306 50.7876 55.2135 56.049 58.5817C61.3105 61.9499 66.6177 64.2621 66.6177 64.2621C90.5839 72.5119 68.4825 45.7413 101.281 60.0199C142.28 77.8682 150.519 53.0117 168.147 42.3861C185.774 31.7605 158.041 1.00445 142.717 11.5024C127.393 22.0003 132.871 10.9883 105.628 3.28989Z" fill="#E4B96F" stroke="#A9945E" stroke-width="2"/>
<path d="M47.2641 51L50.5844 16.625H62.2446L65.5063 51H59.0024L58.5141 45.4531H54.3735L53.9438 51H47.2641ZM54.8618 39.9648H57.9868L56.4829 22.4844H56.1704L54.8618 39.9648Z" fill="#5C899E"/>
<path d="M68.736 36V18.4219H72.9314V20.6602C73.0876 19.9883 73.3767 19.418 73.7985 18.9492C74.2282 18.4727 74.822 18.2344 75.5798 18.2344C76.7985 18.2344 77.6814 18.6094 78.2282 19.3594C78.7829 20.1094 79.0603 21.1367 79.0603 22.4414V36H74.9235V22.875C74.9235 22.5312 74.8532 22.2148 74.7126 21.9258C74.572 21.6289 74.3298 21.4805 73.986 21.4805C73.6657 21.4805 73.4275 21.5938 73.2712 21.8203C73.1228 22.0391 73.029 22.3164 72.99 22.6523C72.9509 22.9805 72.9314 23.3086 72.9314 23.6367V36H68.736ZM85.183 39.0469C84.3705 39.0469 83.6713 39.0039 83.0853 38.918C82.5072 38.8398 81.9877 38.6953 81.5267 38.4844C81.0658 38.2734 80.6049 37.9766 80.1439 37.5938L81.5619 35.168C82.5853 35.7773 83.6088 36.082 84.6322 36.082C85.3041 36.082 85.8041 35.8672 86.1322 35.4375C86.4603 35.0078 86.6244 34.4492 86.6244 33.7617V32.0391C86.2885 33.2422 85.3939 33.8438 83.9408 33.8438C83.1049 33.8438 82.4291 33.6445 81.9135 33.2461C81.3978 32.8477 81.0228 32.3086 80.7885 31.6289C80.5541 30.9492 80.4369 30.1914 80.4369 29.3555V23.0391C80.4369 22.0938 80.5385 21.2617 80.7416 20.543C80.9447 19.8164 81.3002 19.25 81.808 18.8438C82.3158 18.4375 83.0267 18.2344 83.9408 18.2344C84.7142 18.2344 85.3158 18.4297 85.7455 18.8203C86.183 19.2109 86.476 19.7383 86.6244 20.4023V18.4219H90.9017V33.4922C90.9017 35.4844 90.4408 36.9062 89.5189 37.7578C88.6049 38.6172 87.1595 39.0469 85.183 39.0469ZM85.64 30.6797C86.2963 30.6797 86.6244 30.0859 86.6244 28.8984V22.9219C86.6244 22.6016 86.5306 22.2734 86.3431 21.9375C86.1635 21.6016 85.9135 21.4336 85.5931 21.4336C85.1869 21.4336 84.933 21.5859 84.8314 21.8906C84.7299 22.1875 84.6791 22.5312 84.6791 22.9219V28.8984C84.6791 29.3203 84.7299 29.7227 84.8314 30.1055C84.9408 30.4883 85.2103 30.6797 85.64 30.6797ZM97.2002 36.1875C95.9502 36.1875 94.9541 35.9531 94.212 35.4844C93.4698 35.0156 92.9385 34.3398 92.6182 33.457C92.2979 32.5742 92.1377 31.5117 92.1377 30.2695V23.2031C92.1377 21.5703 92.6065 20.3359 93.544 19.5C94.4815 18.6562 95.7705 18.2344 97.4112 18.2344C100.786 18.2344 102.474 19.8906 102.474 23.2031V24.4805C102.474 26.0273 102.458 27.0664 102.427 27.5977H96.333V30.9961C96.333 31.3086 96.3526 31.6172 96.3916 31.9219C96.4307 32.2188 96.5166 32.4648 96.6495 32.6602C96.7901 32.8555 97.0127 32.9531 97.3174 32.9531C97.7549 32.9531 98.0284 32.7656 98.1377 32.3906C98.2471 32.0078 98.3018 31.5117 98.3018 30.9023V29.2148H102.474V30.2109C102.474 31.5234 102.31 32.625 101.981 33.5156C101.661 34.3984 101.114 35.0664 100.341 35.5195C99.5752 35.9648 98.5284 36.1875 97.2002 36.1875ZM96.3096 25.5117H98.3018V23.1445C98.3018 22.5117 98.2237 22.0586 98.0674 21.7852C97.9112 21.5039 97.6768 21.3633 97.3643 21.3633C97.0284 21.3633 96.7666 21.4961 96.5791 21.7617C96.3995 22.0273 96.3096 22.4883 96.3096 23.1445V25.5117ZM103.733 36V15.375H107.999V36H103.733ZM109.399 17.3438V13.8516H113.594V17.3438H109.399ZM109.399 36V18.4219H113.594V36H109.399ZM120.279 36.1875C118.311 36.1875 116.912 35.6836 116.084 34.6758C115.264 33.668 114.854 32.1875 114.854 30.2344V24.8203C114.854 23.3516 115.01 22.1289 115.322 21.1523C115.635 20.1758 116.182 19.4453 116.963 18.9609C117.744 18.4766 118.83 18.2344 120.221 18.2344C121.189 18.2344 122.057 18.4062 122.822 18.75C123.596 19.0938 124.205 19.5977 124.65 20.2617C125.096 20.9258 125.318 21.7383 125.318 22.6992V25.3828H121.041V22.9219C121.041 22.5156 120.982 22.1758 120.865 21.9023C120.748 21.6211 120.494 21.4805 120.104 21.4805C119.416 21.4805 119.072 21.9688 119.072 22.9453V31.4648C119.072 31.8242 119.15 32.1562 119.307 32.4609C119.463 32.7578 119.721 32.9062 120.08 32.9062C120.447 32.9062 120.701 32.7617 120.842 32.4727C120.99 32.1758 121.064 31.832 121.064 31.4414V28.4883H125.318V31.5586C125.318 32.5273 125.1 33.3594 124.662 34.0547C124.232 34.7422 123.639 35.2695 122.881 35.6367C122.123 36.0039 121.256 36.1875 120.279 36.1875ZM129.718 36.1875C128.742 36.1875 127.996 35.9609 127.48 35.5078C126.972 35.0547 126.625 34.4336 126.437 33.6445C126.25 32.8555 126.156 31.9609 126.156 30.9609C126.156 29.8906 126.261 29.0156 126.472 28.3359C126.683 27.6484 127.043 27.0859 127.55 26.6484C128.066 26.2109 128.773 25.8398 129.672 25.5352L132.273 24.6445V22.8398C132.273 21.8945 131.965 21.4219 131.347 21.4219C130.785 21.4219 130.504 21.8047 130.504 22.5703V23.625H126.425C126.418 23.5625 126.414 23.4844 126.414 23.3906C126.414 23.2891 126.414 23.1758 126.414 23.0508C126.414 21.3008 126.824 20.0625 127.644 19.3359C128.472 18.6016 129.781 18.2344 131.57 18.2344C132.508 18.2344 133.347 18.4023 134.09 18.7383C134.832 19.0664 135.418 19.5547 135.847 20.2031C136.285 20.8516 136.504 21.6523 136.504 22.6055V36H132.332V33.9141C132.129 34.6484 131.793 35.2109 131.324 35.6016C130.855 35.9922 130.32 36.1875 129.718 36.1875ZM131.371 32.9297C131.715 32.9297 131.949 32.7852 132.074 32.4961C132.199 32.207 132.261 31.8945 132.261 31.5586V26.6602C131.683 26.8945 131.234 27.1914 130.914 27.5508C130.593 27.9023 130.433 28.4219 130.433 29.1094V31.3711C130.433 32.4102 130.746 32.9297 131.371 32.9297Z" fill="#5C899E"/>
<path d="M71.8209 56V41.68H73.4209V43.36H73.5009C73.7676 42.7067 74.1609 42.2267 74.6809 41.92C75.2009 41.6 75.8142 41.44 76.5209 41.44C77.3876 41.44 78.1342 41.66 78.7609 42.1C79.3876 42.54 79.8676 43.1667 80.2009 43.98C80.5476 44.78 80.7209 45.7333 80.7209 46.84C80.7209 47.9333 80.5476 48.8867 80.2009 49.7C79.8676 50.5133 79.3876 51.14 78.7609 51.58C78.1342 52.02 77.3876 52.24 76.5209 52.24C75.8142 52.24 75.2076 52.08 74.7009 51.76C74.2076 51.44 73.8076 50.96 73.5009 50.32H73.4209V56H71.8209ZM76.0809 50.8C76.9876 50.8 77.7009 50.52 78.2209 49.96C78.7409 49.3867 79.0009 48.64 79.0009 47.72V45.96C79.0009 45.04 78.7409 44.3 78.2209 43.74C77.7009 43.1667 76.9876 42.88 76.0809 42.88C75.6009 42.88 75.1542 42.9667 74.7409 43.14C74.3409 43.3133 74.0209 43.5467 73.7809 43.84C73.5409 44.1333 73.4209 44.4733 73.4209 44.86V48.7C73.4209 49.14 73.5409 49.52 73.7809 49.84C74.0209 50.1467 74.3409 50.3867 74.7409 50.56C75.1542 50.72 75.6009 50.8 76.0809 50.8ZM87.1025 52.24C86.1825 52.24 85.3691 52.02 84.6625 51.58C83.9691 51.1267 83.4225 50.5 83.0225 49.7C82.6358 48.8867 82.4425 47.9333 82.4425 46.84C82.4425 45.7467 82.6358 44.8 83.0225 44C83.4225 43.1867 83.9691 42.56 84.6625 42.12C85.3691 41.6667 86.1825 41.44 87.1025 41.44C88.0225 41.44 88.8291 41.6667 89.5225 42.12C90.2291 42.56 90.7758 43.1867 91.1625 44C91.5625 44.8 91.7625 45.7467 91.7625 46.84C91.7625 47.9333 91.5625 48.8867 91.1625 49.7C90.7758 50.5 90.2291 51.1267 89.5225 51.58C88.8291 52.02 88.0225 52.24 87.1025 52.24ZM87.1025 50.82C87.9691 50.82 88.6758 50.5533 89.2225 50.02C89.7691 49.4867 90.0425 48.6733 90.0425 47.58V46.1C90.0425 45.0067 89.7691 44.1933 89.2225 43.66C88.6758 43.1267 87.9691 42.86 87.1025 42.86C86.2491 42.86 85.5425 43.1267 84.9825 43.66C84.4358 44.1933 84.1625 45.0067 84.1625 46.1V47.58C84.1625 48.6733 84.4358 49.4867 84.9825 50.02C85.5425 50.5533 86.2491 50.82 87.1025 50.82ZM94.1739 52V41.68H95.7739V43.58H95.8739C95.9939 43.2467 96.1805 42.94 96.4339 42.66C96.6872 42.3667 97.0139 42.1333 97.4139 41.96C97.8139 41.7733 98.2939 41.68 98.8539 41.68H99.4739V43.28H98.5339C97.9605 43.28 97.4672 43.36 97.0539 43.52C96.6405 43.6667 96.3205 43.8667 96.0939 44.12C95.8805 44.3733 95.7739 44.6667 95.7739 45V52H94.1739ZM103.656 52C103.109 52 102.689 51.84 102.396 51.52C102.102 51.2 101.956 50.7933 101.956 50.3V43.08H100.256V41.68H101.216C101.562 41.68 101.796 41.6133 101.916 41.48C102.049 41.3333 102.116 41.0867 102.116 40.74V38.82H103.556V41.68H105.816V43.08H103.556V50.6H105.656V52H103.656ZM108.532 52V43.08H106.852V41.68H108.532V39.6C108.532 38.8933 108.719 38.32 109.092 37.88C109.465 37.4267 110.032 37.2 110.792 37.2H112.352V38.6H110.132V41.68H112.352V43.08H110.132V52H108.532ZM118.058 52.24C117.138 52.24 116.325 52.02 115.618 51.58C114.925 51.1267 114.378 50.5 113.978 49.7C113.592 48.8867 113.398 47.9333 113.398 46.84C113.398 45.7467 113.592 44.8 113.978 44C114.378 43.1867 114.925 42.56 115.618 42.12C116.325 41.6667 117.138 41.44 118.058 41.44C118.978 41.44 119.785 41.6667 120.478 42.12C121.185 42.56 121.732 43.1867 122.118 44C122.518 44.8 122.718 45.7467 122.718 46.84C122.718 47.9333 122.518 48.8867 122.118 49.7C121.732 50.5 121.185 51.1267 120.478 51.58C119.785 52.02 118.978 52.24 118.058 52.24ZM118.058 50.82C118.925 50.82 119.632 50.5533 120.178 50.02C120.725 49.4867 120.998 48.6733 120.998 47.58V46.1C120.998 45.0067 120.725 44.1933 120.178 43.66C119.632 43.1267 118.925 42.86 118.058 42.86C117.205 42.86 116.498 43.1267 115.938 43.66C115.392 44.1933 115.118 45.0067 115.118 46.1V47.58C115.118 48.6733 115.392 49.4867 115.938 50.02C116.498 50.5533 117.205 50.82 118.058 50.82ZM126.83 52C126.283 52 125.863 51.8467 125.57 51.54C125.276 51.22 125.13 50.82 125.13 50.34V37.2H126.73V50.6H128.25V52H126.83ZM130.359 52V41.68H131.959V52H130.359ZM131.159 39.26C130.826 39.26 130.579 39.18 130.419 39.02C130.259 38.8467 130.179 38.6267 130.179 38.36V38.1C130.179 37.8333 130.259 37.62 130.419 37.46C130.579 37.2867 130.826 37.2 131.159 37.2C131.506 37.2 131.752 37.2867 131.899 37.46C132.059 37.62 132.139 37.8333 132.139 38.1V38.36C132.139 38.6267 132.059 38.8467 131.899 39.02C131.752 39.18 131.506 39.26 131.159 39.26ZM139.039 52.24C138.119 52.24 137.306 52.02 136.599 51.58C135.906 51.1267 135.359 50.5 134.959 49.7C134.572 48.8867 134.379 47.9333 134.379 46.84C134.379 45.7467 134.572 44.8 134.959 44C135.359 43.1867 135.906 42.56 136.599 42.12C137.306 41.6667 138.119 41.44 139.039 41.44C139.959 41.44 140.766 41.6667 141.459 42.12C142.166 42.56 142.712 43.1867 143.099 44C143.499 44.8 143.699 45.7467 143.699 46.84C143.699 47.9333 143.499 48.8867 143.099 49.7C142.712 50.5 142.166 51.1267 141.459 51.58C140.766 52.02 139.959 52.24 139.039 52.24ZM139.039 50.82C139.906 50.82 140.612 50.5533 141.159 50.02C141.706 49.4867 141.979 48.6733 141.979 47.58V46.1C141.979 45.0067 141.706 44.1933 141.159 43.66C140.612 43.1267 139.906 42.86 139.039 42.86C138.186 42.86 137.479 43.1267 136.919 43.66C136.372 44.1933 136.099 45.0067 136.099 46.1V47.58C136.099 48.6733 136.372 49.4867 136.919 50.02C137.479 50.5533 138.186 50.82 139.039 50.82Z" fill="#5C899E"/>
</svg>
